<svg width="1000" height="1000" viewBox="0 0 1000 1000" fill="none" xmlns="http://www.w3.org/2000/svg">
<rect width="1000" height="1000" fill="#111111"/>
<path d="M235.472 473.472V544H220.88V535.68C218.576 538.581 215.547 540.885 211.792 542.592C208.123 544.213 204.197 545.024 200.016 545.024C194.469 545.024 189.477 543.872 185.04 541.568C180.688 539.264 177.232 535.851 174.672 531.328C172.197 526.805 170.96 521.344 170.96 514.944V473.472H185.424V512.768C185.424 519.083 187.003 523.947 190.16 527.36C193.317 530.688 197.627 532.352 203.088 532.352C208.549 532.352 212.859 530.688 216.016 527.36C219.259 523.947 220.88 519.083 220.88 512.768V473.472H235.472ZM329.861 472.32C335.408 472.32 340.357 473.472 344.709 475.776C349.146 478.08 352.602 481.493 355.077 486.016C357.637 490.539 358.917 496 358.917 502.4V544H344.453V504.576C344.453 498.261 342.874 493.44 339.717 490.112C336.56 486.699 332.25 484.992 326.789 484.992C321.328 484.992 316.976 486.699 313.733 490.112C310.576 493.44 308.997 498.261 308.997 504.576V544H294.533V504.576C294.533 498.261 292.954 493.44 289.797 490.112C286.64 486.699 282.33 484.992 276.869 484.992C271.408 484.992 267.056 486.699 263.813 490.112C260.656 493.44 259.077 498.261 259.077 504.576V544H244.485V473.472H259.077V481.536C261.466 478.635 264.496 476.373 268.165 474.752C271.834 473.131 275.76 472.32 279.941 472.32C285.573 472.32 290.608 473.515 295.045 475.904C299.482 478.293 302.896 481.749 305.285 486.272C307.418 482.005 310.746 478.635 315.269 476.16C319.792 473.6 324.656 472.32 329.861 472.32ZM461.965 473.472L440.077 544H424.717L410.509 491.904L396.301 544H380.941L358.925 473.472H373.773L388.493 530.176L403.469 473.472H418.701L433.037 529.92L447.629 473.472H461.965ZM527.27 507.008C527.27 509.653 527.099 512.043 526.758 514.176H472.87C473.297 519.808 475.387 524.331 479.142 527.744C482.897 531.157 487.505 532.864 492.966 532.864C500.817 532.864 506.363 529.579 509.606 523.008H525.35C523.217 529.493 519.334 534.827 513.702 539.008C508.155 543.104 501.243 545.152 492.966 545.152C486.225 545.152 480.166 543.659 474.79 540.672C469.499 537.6 465.318 533.333 462.246 527.872C459.259 522.325 457.766 515.925 457.766 508.672C457.766 501.419 459.217 495.061 462.118 489.6C465.105 484.053 469.243 479.787 474.534 476.8C479.91 473.813 486.054 472.32 492.966 472.32C499.622 472.32 505.553 473.771 510.758 476.672C515.963 479.573 520.017 483.669 522.918 488.96C525.819 494.165 527.27 500.181 527.27 507.008ZM512.038 502.4C511.953 497.024 510.033 492.715 506.278 489.472C502.523 486.229 497.873 484.608 492.326 484.608C487.291 484.608 482.982 486.229 479.398 489.472C475.814 492.629 473.681 496.939 472.998 502.4H512.038ZM545.982 483.968C548.457 480.555 551.827 477.781 556.094 475.648C560.446 473.429 565.267 472.32 570.558 472.32C576.787 472.32 582.419 473.813 587.454 476.8C592.489 479.787 596.457 484.053 599.358 489.6C602.259 495.061 603.71 501.333 603.71 508.416C603.71 515.499 602.259 521.856 599.358 527.488C596.457 533.035 592.446 537.387 587.326 540.544C582.291 543.616 576.702 545.152 570.558 545.152C565.097 545.152 560.233 544.085 555.966 541.952C551.785 539.819 548.457 537.088 545.982 533.76V544H531.39V449.28H545.982V483.968ZM588.862 508.416C588.862 503.552 587.838 499.371 585.79 495.872C583.827 492.288 581.182 489.6 577.854 487.808C574.611 485.931 571.113 484.992 567.358 484.992C563.689 484.992 560.19 485.931 556.862 487.808C553.619 489.685 550.974 492.416 548.926 496C546.963 499.584 545.982 503.808 545.982 508.672C545.982 513.536 546.963 517.803 548.926 521.472C550.974 525.056 553.619 527.787 556.862 529.664C560.19 531.541 563.689 532.48 567.358 532.48C571.113 532.48 574.611 531.541 577.854 529.664C581.182 527.701 583.827 524.885 585.79 521.216C587.838 517.547 588.862 513.28 588.862 508.416ZM623.671 508.416C623.671 501.333 625.122 495.061 628.023 489.6C631.01 484.139 635.02 479.915 640.055 476.928C645.175 473.856 650.85 472.32 657.079 472.32C661.687 472.32 666.21 473.344 670.647 475.392C675.17 477.355 678.754 480 681.399 483.328V449.28H696.119V544H681.399V533.376C679.01 536.789 675.682 539.605 671.415 541.824C667.234 544.043 662.412 545.152 656.951 545.152C650.807 545.152 645.175 543.616 640.055 540.544C635.02 537.387 631.01 533.035 628.023 527.488C625.122 521.856 623.671 515.499 623.671 508.416ZM681.399 508.672C681.399 503.808 680.375 499.584 678.327 496C676.364 492.416 673.762 489.685 670.519 487.808C667.276 485.931 663.778 484.992 660.023 484.992C656.268 484.992 652.77 485.931 649.527 487.808C646.284 489.6 643.639 492.288 641.591 495.872C639.628 499.371 638.647 503.552 638.647 508.416C638.647 513.28 639.628 517.547 641.591 521.216C643.639 524.885 646.284 527.701 649.527 529.664C652.855 531.541 656.354 532.48 660.023 532.48C663.778 532.48 667.276 531.541 670.519 529.664C673.762 527.787 676.364 525.056 678.327 521.472C680.375 517.803 681.399 513.536 681.399 508.672ZM769.685 507.008C769.685 509.653 769.514 512.043 769.173 514.176H715.285C715.712 519.808 717.802 524.331 721.557 527.744C725.312 531.157 729.92 532.864 735.381 532.864C743.232 532.864 748.778 529.579 752.021 523.008H767.765C765.632 529.493 761.749 534.827 756.117 539.008C750.57 543.104 743.658 545.152 735.381 545.152C728.64 545.152 722.581 543.659 717.205 540.672C711.914 537.6 707.733 533.333 704.661 527.872C701.674 522.325 700.181 515.925 700.181 508.672C700.181 501.419 701.632 495.061 704.533 489.6C707.52 484.053 711.658 479.787 716.949 476.8C722.325 473.813 728.469 472.32 735.381 472.32C742.037 472.32 747.968 473.771 753.173 476.672C758.378 479.573 762.432 483.669 765.333 488.96C768.234 494.165 769.685 500.181 769.685 507.008ZM754.453 502.4C754.368 497.024 752.448 492.715 748.693 489.472C744.938 486.229 740.288 484.608 734.741 484.608C729.706 484.608 725.397 486.229 721.813 489.472C718.229 492.629 716.096 496.939 715.413 502.4H754.453ZM801.069 530.944L821.037 473.472H836.525L809.645 544H792.237L765.485 473.472H781.101L801.069 530.944Z" fill="white"/>
<path d="M613.788 544.896C611.143 544.896 608.924 544 607.132 542.208C605.34 540.416 604.444 538.197 604.444 535.552C604.444 532.907 605.34 530.688 607.132 528.896C608.924 527.104 611.143 526.208 613.788 526.208C616.348 526.208 618.524 527.104 620.316 528.896C622.108 530.688 623.004 532.907 623.004 535.552C623.004 538.197 622.108 540.416 620.316 542.208C618.524 544 616.348 544.896 613.788 544.896Z" fill="#E1FF00"/>
</svg>
