<?xml version="1.0" encoding="UTF-8"?>
<svg width="46px" height="46px" viewBox="0 0 46 46" version="1.1" xmlns="http://www.w3.org/2000/svg" xmlns:xlink="http://www.w3.org/1999/xlink">
    <title>smiley</title>
    <g id="website" stroke="none" stroke-width="1" fill="none" fill-rule="evenodd">
        <g id="squareblack_MAIN" transform="translate(-1152, -1726)" fill="#000000" fill-rule="nonzero">
            <g id="Group-19" transform="translate(1130, 1706)">
                <g id="smiley" transform="translate(22.5552, 20.5552)">
                    <path d="M22.4447957,5.44479571 C13.0427771,5.44479571 5.44479571,13.0427771 5.44479571,22.4447957 C5.44479571,31.8468143 13.0427771,39.4447957 22.4447957,39.4447957 C31.8468143,39.4447957 39.4447957,31.8468143 39.4447957,22.4447957 C39.4447957,13.0427771 31.8468143,5.44479571 22.4447957,5.44479571 Z M22.4447957,8.27812905 C30.3305375,8.27812905 36.6114624,14.5590539 36.6114624,22.4447957 C36.6114624,30.3305375 30.3305375,36.6114624 22.4447957,36.6114624 C14.5590539,36.6114624 8.27812905,30.3305375 8.27812905,22.4447957 C8.27812905,14.5590539 14.5590539,8.27812905 22.4447957,8.27812905 Z M16.6916747,17.1848657 C15.678328,17.1848657 14.8583412,18.0048525 14.8583412,19.0181992 C14.8583412,20.0315459 15.678328,20.8515327 16.6916747,20.8515327 C17.7050213,20.8515327 18.5250082,20.0315459 18.5250082,19.0181992 C18.5250082,18.0048525 17.7050213,17.1848657 16.6916747,17.1848657 Z M28.025008,17.1848657 C27.0116613,17.1848657 26.1916745,18.0048525 26.1916745,19.0181992 C26.1916745,20.0315459 27.0116613,20.8515327 28.025008,20.8515327 C29.0383547,20.8515327 29.8583415,20.0315459 29.8583415,19.0181992 C29.8583415,18.0048525 29.0383547,17.1848657 28.025008,17.1848657 Z M16.6304489,25.4313177 L14.3283655,27.0250677 C16.1379362,29.6591823 19.1372845,31.3193385 22.5627405,31.3193385 C25.9881966,31.3193385 28.9875449,29.6591823 30.7971155,27.0250677 L28.4950322,25.4313177 C27.1890426,27.32943 25.086178,28.4860052 22.5627405,28.4860052 C20.039303,28.4860052 17.9364385,27.32943 16.6304489,25.4313177 Z" id="Shape" transform="translate(22.4448, 22.4448) rotate(-24) translate(-22.4448, -22.4448)"></path>
                </g>
            </g>
        </g>
    </g>
</svg>