<?xml version="1.0" encoding="utf-8" ?>
<svg xmlns="http://www.w3.org/2000/svg" xmlns:xlink="http://www.w3.org/1999/xlink" width="17" height="16">
	<path fill="#1E1E1E" transform="translate(0.0634766 0)" d="M11.160266 4.3168612L14.951596 5.0488505C15.339488 5.1114135 15.595997 5.3116159 15.721124 5.649457C15.821224 5.9622731 15.733636 6.2750893 15.458358 6.5879049L12.830704 9.3844805C12.755628 9.4595566 12.693065 9.5784264 12.643014 9.7410908C12.592963 9.8787298 12.574195 10.003856 12.586707 10.116469L13.055931 13.945337C13.093469 14.270666 13.02465 14.533432 12.849473 14.733634C12.574195 15.033937 12.205071 15.090244 11.742104 14.902555L8.269846 13.269655C8.1697454 13.219604 8.0383625 13.194579 7.8756981 13.194579C7.7255464 13.194579 7.60042 13.219604 7.500319 13.269655L3.9905231 14.902555C3.8403716 14.977631 3.6902199 15.015168 3.5400681 15.015168C3.2773027 15.015168 3.0645878 14.921324 2.9019234 14.733634C2.7267466 14.533432 2.6516707 14.270666 2.6766961 13.945337L3.1646888 10.116469C3.1897142 10.016369 3.1709452 9.891242 3.108382 9.7410908C3.0583315 9.5909386 3.0020247 9.4720688 2.9394615 9.3844805L0.29303795 6.5879049C0.017759876 6.2876019 -0.063572288 5.9747858 0.049041476 5.649457C0.13662995 5.3116159 0.38688278 5.1114135 0.79979992 5.0488505L4.572361 4.3168612C4.6849747 4.3043485 4.806973 4.2511697 4.9383559 4.1573248C5.0697384 4.0634799 5.1541986 3.9727633 5.1917367 3.8851748L7.0123258 0.61937571C7.2250409 0.20645857 7.5128317 0 7.8756981 0C8.1134386 0 8.3261528 0.093844801 8.5138426 0.2815344C8.6264563 0.40666083 8.7140446 0.53178722 8.7766085 0.65691364L10.540891 3.8851748C10.603454 3.9727633 10.700427 4.0634799 10.831809 4.1573248C10.963192 4.2511697 11.072678 4.3043485 11.160266 4.3168612Z"/>
</svg>
